<svg width="24" height="24" viewBox="0 0 24 24" fill="none" xmlns="http://www.w3.org/2000/svg">
<path d="M18.0003 14.0006C18.3803 14.0006 18.7303 13.7906 18.8903 13.4506C19.0503 13.1106 19.0203 12.7106 18.8003 12.4006L17.0003 10.0006C17.1905 10.0009 17.3768 9.947 17.5375 9.84516C17.6981 9.74331 17.8263 9.59778 17.9071 9.42563C17.988 9.25347 18.018 9.06184 17.9938 8.8732C17.9696 8.68457 17.892 8.50676 17.7703 8.36062L12.7703 2.36062C12.3903 1.90062 11.6103 1.90062 11.2303 2.36062L6.23033 8.36062C6.10861 8.50676 6.03109 8.68457 6.00685 8.8732C5.98262 9.06184 6.01268 9.25347 6.09351 9.42563C6.17434 9.59778 6.30258 9.74331 6.4632 9.84516C6.62381 9.947 6.81014 10.0009 7.00033 10.0006L5.20033 12.4006C4.97033 12.7006 4.94033 13.1106 5.11033 13.4506C5.28033 13.7906 5.63033 14.0006 6.00033 14.0006L4.20033 16.4006C3.97033 16.7006 3.94033 17.1106 4.11033 17.4506C4.28033 17.7906 4.63033 18.0006 5.00033 18.0006H11.0003V22.0006H13.0003V18.0006H19.0003C19.3803 18.0006 19.7303 17.7906 19.8903 17.4506C20.0503 17.1106 20.0203 16.7106 19.8003 16.4006L18.0003 14.0006ZM7.00033 16.0006L8.80033 13.6006C9.03033 13.3006 9.06033 12.8906 8.89033 12.5506C8.72033 12.2106 8.37033 12.0006 8.00033 12.0006L9.80033 9.60063C10.0303 9.30063 10.0603 8.89063 9.89033 8.55063C9.74033 8.25063 9.45033 8.05063 9.12033 8.01063L11.9903 4.56063L14.8603 8.01063C14.5303 8.05063 14.2403 8.26063 14.0903 8.55063C13.9203 8.89063 13.9603 9.29063 14.1803 9.60063L15.9803 12.0006C15.6003 12.0006 15.2503 12.2106 15.0903 12.5506C14.9303 12.8906 14.9603 13.2906 15.1803 13.6006L16.9803 16.0006H7.00033Z" fill="black"/>
</svg>
