<svg width="24" height="24" viewBox="0 0 24 24" fill="none" xmlns="http://www.w3.org/2000/svg">
<path d="M21.4498 8.61033L12.4498 4.11033C12.3115 4.04162 12.1592 4.00586 12.0048 4.00586C11.8504 4.00586 11.698 4.04162 11.5598 4.11033L5.55977 7.11033L2.55977 8.61033L1.55977 9.11033C1.39485 9.19343 1.25617 9.32057 1.15909 9.47766C1.06201 9.63476 1.01033 9.81566 1.00977 10.0003V16.0003H3.00977V10.6203L5.00977 11.6203V15.4503C5.00977 17.5103 8.12977 20.0103 12.0098 20.0103C15.8898 20.0103 19.0098 17.5203 19.0098 15.4503V11.6203L21.4598 10.4003C21.7998 10.2303 22.0098 9.88033 22.0098 9.51033C22.0098 9.14033 21.7998 8.79033 21.4598 8.62033L21.4498 8.61033ZM6.44977 8.90033L11.9998 6.12033L18.7598 9.50033L11.9998 12.8803L5.23977 9.50033L6.44977 8.89033V8.90033ZM16.9998 15.4503C16.9998 16.2103 14.8898 18.0103 11.9998 18.0103C9.10977 18.0103 6.99977 16.2203 6.99977 15.4503V12.6203L11.5498 14.9003C11.6898 14.9703 11.8398 15.0103 11.9998 15.0103C12.1598 15.0103 12.3098 14.9703 12.4498 14.9003L16.9998 12.6203V15.4503Z" fill="black"/>
</svg>
