<svg width="8" height="8" viewBox="0 0 8 8" fill="none" xmlns="http://www.w3.org/2000/svg">
<g clip-path="url(#clip0_1185_23401)">
<path d="M5.49935 1.83333C5.67616 1.83333 5.84573 1.7631 5.97075 1.63807C6.09578 1.51305 6.16602 1.34348 6.16602 1.16667C6.16602 0.989856 6.09578 0.820286 5.97075 0.695262C5.84573 0.570238 5.67616 0.5 5.49935 0.5C5.32254 0.5 5.15297 0.570238 5.02794 0.695262C4.90292 0.820286 4.83268 0.989856 4.83268 1.16667C4.83268 1.34348 4.90292 1.51305 5.02794 1.63807C5.15297 1.7631 5.32254 1.83333 5.49935 1.83333ZM4.29935 6.46667L4.63268 5L5.33268 5.66667V7.66667H5.99935V5.16667L5.29935 4.5L5.49935 3.5C5.72775 3.76171 6.00954 3.97149 6.32576 4.11522C6.64199 4.25896 6.98532 4.33333 7.33268 4.33333V3.66667C6.74602 3.67667 6.19935 3.37 5.89935 2.86667L5.56602 2.33333C5.44602 2.13333 5.23268 2 4.99935 2C4.89935 2 4.83268 2.03333 4.73268 2.03333L2.99935 2.76667V4.33333H3.66602V3.2L4.26602 2.96667L3.73268 5.66667L2.09935 5.33333L1.96602 6L4.29935 6.46667ZM1.33268 3C1.24428 3 1.15949 2.96488 1.09698 2.90237C1.03447 2.83986 0.999349 2.75507 0.999349 2.66667C0.999349 2.57826 1.03447 2.49348 1.09698 2.43096C1.15949 2.36845 1.24428 2.33333 1.33268 2.33333H2.33268V3H1.33268ZM1.66602 1.66667C1.57761 1.66667 1.49283 1.63155 1.43031 1.56904C1.3678 1.50652 1.33268 1.42174 1.33268 1.33333C1.33268 1.24493 1.3678 1.16014 1.43031 1.09763C1.49283 1.03512 1.57761 1 1.66602 1H3.33268V1.66667H1.66602ZM0.999349 4.33333C0.910943 4.33333 0.826159 4.29821 0.763647 4.2357C0.701135 4.17319 0.666016 4.08841 0.666016 4C0.666016 3.91159 0.701135 3.82681 0.763647 3.7643C0.826159 3.70179 0.910943 3.66667 0.999349 3.66667H2.33268V4.33333H0.999349Z" fill="black"/>
</g>
<defs>
<clipPath id="clip0_1185_23401">
<rect width="8" height="8" fill="white"/>
</clipPath>
</defs>
</svg>
