<svg width="12" height="12" viewBox="0 0 12 12" fill="none" xmlns="http://www.w3.org/2000/svg">
<path d="M3.5 0.5C2.215 0.5 1 2.2 1 4C1 4.74 1.115 5.445 1.235 6H4.665C4.75 5.73 4.855 5.46 4.965 5.185C5.23 4.525 5.5 3.845 5.5 3C5.5 1.76 4.81 0.5 3.5 0.5ZM1.5 8C1.5 8.825 2.175 9.5 3 9.5C3.825 9.5 4.5 8.825 4.5 8V7H1.5V8ZM8.5 2.5C7.19 2.5 6.5 3.755 6.5 5C6.5 5.845 6.77 6.525 7.035 7.185C7.145 7.46 7.25 7.725 7.335 8H10.765C10.885 7.445 11 6.74 11 6C11 4.2 9.785 2.5 8.5 2.5ZM7.5 10C7.5 10.825 8.175 11.5 9 11.5C9.825 11.5 10.5 10.825 10.5 10V9H7.5V10Z" fill="black"/>
</svg>
