<svg width="12" height="12" viewBox="0 0 12 12" fill="none" xmlns="http://www.w3.org/2000/svg">
<path d="M6.43373 1.252L8.28973 4.5H9.99973C10.3976 4.5 10.7791 4.65804 11.0604 4.93934C11.3417 5.22064 11.4997 5.60218 11.4997 6C11.4997 6.39782 11.3417 6.77936 11.0604 7.06066C10.7791 7.34196 10.3976 7.5 9.99973 7.5H8.28973L6.43373 10.748C6.39002 10.8245 6.32686 10.8881 6.25064 10.9324C6.17442 10.9766 6.08787 11 5.99973 11H4.49973C4.42231 11 4.34593 10.9821 4.27662 10.9476C4.20731 10.9131 4.14695 10.863 4.10032 10.8012C4.05369 10.7393 4.02204 10.6676 4.00789 10.5914C3.99373 10.5153 3.99744 10.4369 4.01873 10.3625L4.83673 7.5H3.70673L2.85323 8.3535C2.75949 8.44728 2.63233 8.49997 2.49973 8.5H0.999733C0.914538 8.49995 0.830767 8.47814 0.756369 8.43663C0.681971 8.39512 0.619415 8.33528 0.574636 8.2628C0.529857 8.19032 0.50434 8.10761 0.500506 8.0225C0.496673 7.93739 0.514651 7.85271 0.552733 7.7765L1.44073 6L0.552733 4.2235C0.514651 4.14729 0.496673 4.06261 0.500506 3.9775C0.50434 3.89239 0.529857 3.80968 0.574636 3.7372C0.619415 3.66472 0.681971 3.60488 0.756369 3.56337C0.830767 3.52186 0.914538 3.50005 0.999733 3.5H2.49973C2.63233 3.50003 2.75949 3.55273 2.85323 3.6465L3.70673 4.5H4.83673L4.01873 1.6375C3.99744 1.56306 3.99373 1.48469 4.00789 1.40857C4.02204 1.33245 4.05369 1.26066 4.10032 1.19885C4.14695 1.13704 4.20731 1.08691 4.27662 1.0524C4.34593 1.0179 4.42231 0.999957 4.49973 1H5.99973C6.08787 1.00003 6.17442 1.02335 6.25064 1.06761C6.32686 1.11186 6.39002 1.17547 6.43373 1.252Z" fill="black"/>
</svg>
