<svg width="12" height="12" viewBox="0 0 12 12" fill="none" xmlns="http://www.w3.org/2000/svg">
<g clip-path="url(#clip0_1185_23393)">
<path fill-rule="evenodd" clip-rule="evenodd" d="M7.15324 2.30859H4.84555C4.07632 2.61629 3.61478 3.07782 3.46094 3.69321V8.30859C3.46094 8.67582 3.60682 9.028 3.86648 9.28766C4.12615 9.54733 4.47833 9.69321 4.84555 9.69321H7.15324C7.52047 9.69321 7.87265 9.54733 8.13232 9.28766C8.39198 9.028 8.53786 8.67582 8.53786 8.30859V3.69321C8.38401 3.07782 7.92248 2.61629 7.15324 2.30859ZM4.38401 8.30859V3.8289C4.47171 3.59721 4.67201 3.40152 5.03525 3.23167H6.96355C7.32678 3.40152 7.52709 3.59721 7.61478 3.8289V8.30859C7.61478 8.431 7.56616 8.5484 7.4796 8.63495C7.39305 8.72151 7.27565 8.77013 7.15324 8.77013H4.84555C4.72315 8.77013 4.60575 8.72151 4.5192 8.63495C4.43264 8.5484 4.38401 8.431 4.38401 8.30859Z" fill="black"/>
<path fill-rule="evenodd" clip-rule="evenodd" d="M4.61523 5.76998C4.61523 6.25961 4.80974 6.72919 5.15596 7.07541C5.50218 7.42163 5.97176 7.61614 6.46139 7.61614C6.95102 7.61614 7.42059 7.42163 7.76682 7.07541C8.11304 6.72919 8.30754 6.25961 8.30754 5.76998C8.30754 5.28035 8.11304 4.81077 7.76682 4.46455C7.42059 4.11833 6.95102 3.92383 6.46139 3.92383C5.97176 3.92383 5.50218 4.11833 5.15596 4.46455C4.80974 4.81077 4.61523 5.28035 4.61523 5.76998ZM5.90985 6.41891C5.796 6.4466 5.60816 6.50383 5.34631 6.5906L5.31816 6.55137C5.89877 6.3769 6.36677 6.1106 6.71754 5.75106C7.03293 5.4289 7.24554 5.08275 7.35539 4.7126C7.42431 4.77106 7.48693 4.83552 7.54323 4.90598C7.60047 5.29137 7.55708 5.57844 7.4237 5.77552C7.25985 6.01829 6.98523 6.17014 6.72908 6.23706C6.69631 6.24583 6.63677 6.25921 6.54354 6.27952L6.35985 6.31875L6.26154 6.33952L6.20939 6.3506C6.08293 6.37829 5.98647 6.39998 5.90939 6.41891" fill="black"/>
<path d="M1.98112 2.63374C1.89705 2.54669 1.85053 2.4301 1.85158 2.30909C1.85263 2.18808 1.90117 2.07232 1.98674 1.98674C2.07232 1.90117 2.18808 1.85263 2.30909 1.85158C2.4301 1.85053 2.54669 1.89705 2.63374 1.98112L10.0184 9.36574C10.1024 9.45278 10.1489 9.56937 10.1479 9.69038C10.1468 9.8114 10.0983 9.92716 10.0127 10.0127C9.92716 10.0983 9.8114 10.1468 9.69038 10.1479C9.56937 10.1489 9.45278 10.1024 9.36574 10.0184L1.98112 2.63374Z" fill="black"/>
<path fill-rule="evenodd" clip-rule="evenodd" d="M6 11.0769C8.80385 11.0769 11.0769 8.80385 11.0769 6C11.0769 3.19615 8.80385 0.923077 6 0.923077C3.19615 0.923077 0.923077 3.19615 0.923077 6C0.923077 8.80385 3.19615 11.0769 6 11.0769ZM6 12C9.31385 12 12 9.31385 12 6C12 2.68615 9.31385 0 6 0C2.68615 0 0 2.68615 0 6C0 9.31385 2.68615 12 6 12Z" fill="black"/>
</g>
<defs>
<clipPath id="clip0_1185_23393">
<rect width="12" height="12" fill="white"/>
</clipPath>
</defs>
</svg>
