<svg width="8" height="8" viewBox="0 0 8 8" fill="none" xmlns="http://www.w3.org/2000/svg">
<g clip-path="url(#clip0_1185_23403)">
<path d="M8 1.5L6.5 0C6.16845 0.331464 5.71882 0.51767 5.25 0.51767C4.78118 0.51767 4.33155 0.331464 4 0L3 1L4.5 2.5L2.5 4.5L1 3L0 4C0.331464 4.33155 0.51767 4.78118 0.51767 5.25C0.51767 5.71882 0.331464 6.16845 0 6.5L1.5 8C1.83155 7.66854 2.28118 7.48233 2.75 7.48233C3.21882 7.48233 3.66845 7.66854 4 8L5 7L3.5 5.5L5.5 3.5L7 5L8 4C7.66854 3.66845 7.48233 3.21882 7.48233 2.75C7.48233 2.28118 7.66854 1.83155 8 1.5Z" fill="black"/>
</g>
<defs>
<clipPath id="clip0_1185_23403">
<rect width="8" height="8" fill="white"/>
</clipPath>
</defs>
</svg>
