<svg width="8" height="8" viewBox="0 0 8 8" fill="none" xmlns="http://www.w3.org/2000/svg">
<path d="M7.33268 4.49202V5.99935C7.33268 6.26457 7.22733 6.51892 7.03979 6.70646C6.85225 6.89399 6.5979 6.99935 6.33268 6.99935H1.66602C1.4008 6.99935 1.14645 6.89399 0.958909 6.70646C0.771372 6.51892 0.666016 6.26457 0.666016 5.99935V4.49202L0.850349 4.58435C1.82732 5.07642 2.90603 5.33268 3.99993 5.33256C5.09383 5.33245 6.17248 5.07596 7.14935 4.58368L7.33268 4.49202ZM4.66602 0.666016C4.93123 0.666016 5.18559 0.771373 5.37312 0.958909C5.56066 1.14645 5.66602 1.4008 5.66602 1.66602V1.99935H6.33268C6.5979 1.99935 6.85225 2.10471 7.03979 2.29224C7.22733 2.47978 7.33268 2.73413 7.33268 2.99935V3.74668L6.85035 3.98802C5.98736 4.42305 5.03625 4.65482 4.06987 4.66556C3.10349 4.67631 2.14747 4.46575 1.27502 4.05002L1.05935 3.94335L0.666016 3.74668V2.99935C0.666016 2.73413 0.771372 2.47978 0.958909 2.29224C1.14645 2.10471 1.4008 1.99935 1.66602 1.99935H2.33268V1.66602C2.33268 1.4008 2.43804 1.14645 2.62558 0.958909C2.81311 0.771373 3.06747 0.666016 3.33268 0.666016H4.66602ZM3.99935 3.33268C3.91094 3.33268 3.82616 3.3678 3.76365 3.43031C3.70113 3.49283 3.66602 3.57761 3.66602 3.66602C3.6658 3.70979 3.6742 3.75318 3.69075 3.7937C3.7073 3.83423 3.73167 3.8711 3.76247 3.90221C3.79327 3.93331 3.82989 3.95805 3.87025 3.975C3.91061 3.99196 3.95391 4.0008 3.99768 4.00102C4.04146 4.00123 4.08484 3.99283 4.12537 3.97628C4.1659 3.95973 4.20276 3.93536 4.23387 3.90456C4.26498 3.87376 4.28972 3.83714 4.30667 3.79678C4.32362 3.75643 4.33246 3.71312 4.33268 3.66935C4.33268 3.48202 4.18335 3.33268 3.99935 3.33268ZM4.66602 1.33268H3.33268C3.24428 1.33268 3.15949 1.3678 3.09698 1.43031C3.03447 1.49283 2.99935 1.57761 2.99935 1.66602V1.99935H4.99935V1.66602C4.99935 1.57761 4.96423 1.49283 4.90172 1.43031C4.83921 1.3678 4.75442 1.33268 4.66602 1.33268Z" fill="black"/>
</svg>
